<?xml version="1.0" standalone="no"?>
<!DOCTYPE svg PUBLIC "-//W3C//DTD SVG 20010904//EN"
 "http://www.w3.org/TR/2001/REC-SVG-20010904/DTD/svg10.dtd">
<svg version="1.0" xmlns="http://www.w3.org/2000/svg"
 width="800.000000pt" height="800.000000pt" viewBox="0 0 800.000000 800.000000"
 preserveAspectRatio="xMidYMid meet">
<metadata>
Created by potrace 1.11, written by Peter Selinger 2001-2013
</metadata>
<g transform="translate(0.000000,800.000000) scale(0.100000,-0.100000)"
fill="#000000" stroke="none">
<path d="M0 4000 l0 -4000 4000 0 4000 0 0 4000 0 4000 -4000 0 -4000 0 0
-4000z m2925 2810 c173 -34 455 -136 455 -164 0 -6 -36 -141 -79 -301 -57
-214 -81 -290 -92 -288 -8 1 -42 13 -77 28 -121 51 -207 68 -342 69 -118 1
-129 -1 -187 -28 -75 -34 -139 -99 -175 -176 -42 -90 -58 -187 -65 -387 l-6
-183 386 0 387 0 0 -310 0 -310 -385 0 -385 0 0 -1180 0 -1180 -400 0 -400 0
0 1180 0 1180 -210 0 -210 0 0 310 0 310 209 0 208 0 6 233 c4 185 10 252 27
332 107 498 386 800 813 881 109 20 383 12 522 -16z m1965 -1220 c343 -42 648
-225 866 -518 l39 -53 5 263 5 263 352 3 353 2 2 -1782 c3 -1761 3 -1783 23
-1822 27 -53 58 -74 133 -88 l62 -12 0 -337 c0 -189 -4 -340 -9 -343 -26 -17
-190 -30 -371 -30 l-205 -1 -80 32 c-136 56 -244 152 -305 273 -56 110 -54 86
-60 814 l-5 679 -42 -64 c-222 -341 -586 -529 -1026 -529 -327 0 -615 116
-870 350 -266 244 -453 650 -498 1079 -14 139 -7 411 15 530 65 355 222 662
456 891 312 306 735 452 1160 400z"/>
<path d="M4744 4895 c-138 -30 -261 -100 -375 -214 -136 -137 -226 -303 -270
-503 -28 -122 -30 -317 -5 -438 63 -301 252 -545 504 -651 197 -82 463 -79
650 6 124 57 282 199 393 354 l60 84 -3 397 -3 397 -43 86 c-117 237 -332 414
-576 477 -92 23 -237 26 -332 5z"/>
</g>
</svg>
